HIERARCHY
ROOT pelvis
{
  OFFSET 0 100 0
  CHANNELS 6 Xposition Yposition Zposition Zrotation Xrotation Yrotation
  JOINT pelvis_right_femur
  {
    OFFSET -10.78128 -3.44521 -0.5502486
    CHANNELS 3 Zrotation Xrotation Yrotation
    JOINT right_femur_tibia
    {
      OFFSET -0.8047443 -44.0398 -0.1307829
      CHANNELS 3 Zrotation Xrotation Yrotation
      JOINT right_tibia_foot
      {
        OFFSET 3.006224 -47.83518 -5
        CHANNELS 3 Zrotation Xrotation Yrotation
        End Site
        {
          OFFSET 0 -5 15
        }
      }
    }
  }
  JOINT pelvis_left_femur
  {
    OFFSET 10.78128 -3.44521 -0.5502486
    CHANNELS 3 Zrotation Xrotation Yrotation
    JOINT left_femur_tibia
    {
      OFFSET 0.8047443 -44.0398 -0.1307829
      CHANNELS 3 Zrotation Xrotation Yrotation
      JOINT left_tibia_foot
      {
        OFFSET -4.370144 -48.10324 -4.275266
        CHANNELS 3 Zrotation Xrotation Yrotation
        End Site
        {
          OFFSET 0 -5 15
        }
      }
    }
  }
  JOINT pelvis_spine1
  {
    OFFSET 0 6.468898 -3.129235
    CHANNELS 3 Zrotation Xrotation Yrotation
    JOINT spine1
    {
      OFFSET 0 23.15396 4.99043
      CHANNELS 3 Zrotation Xrotation Yrotation
      JOINT spine2
      {
        OFFSET 0 20.79997 -5.064912
        CHANNELS 3 Zrotation Xrotation Yrotation
        JOINT neck
        {
          OFFSET 0 14.38658 9.616178
          CHANNELS 3 Zrotation Xrotation Yrotation
          End Site
          {
            OFFSET 0 20 0
          }
        }
      }
      JOINT right_manubrium
      {
        OFFSET -5.722621 16.35077 3.967754
        CHANNELS 3 Zrotation Xrotation Yrotation
        JOINT right_clavicle
        {
          OFFSET -13.16364 1.694482 -4.693211
          CHANNELS 3 Zrotation Xrotation Yrotation
          JOINT right_humerus
          {
            OFFSET -28.5034 -0.3100689 -2.792744
            CHANNELS 3 Zrotation Xrotation Yrotation
            JOINT right_radius
            {
              OFFSET -25.15693 0.02248979 -1.271978
              CHANNELS 3 Zrotation Xrotation Yrotation
              End Site
              {
                OFFSET -15 0 0
              }
            }
          }
        }
      }
      JOINT left_manubrium
      {
        OFFSET 5.722621 16.35077 3.967754
        CHANNELS 3 Zrotation Xrotation Yrotation
        JOINT left_clavicle
        {
          OFFSET 13.16364 1.694482 -4.693211
          CHANNELS 3 Zrotation Xrotation Yrotation
          JOINT left_humerus
          {
            OFFSET 29.39168 -1.063119 -2.237045
            CHANNELS 3 Zrotation Xrotation Yrotation
            JOINT left_radius
            {
              OFFSET 24.59957 -0.9528479 0.9047498
              CHANNELS 3 Zrotation Xrotation Yrotation
              End Site
              {
                OFFSET 15 -0 -0
              }
            }
          }
        }
      }
    }
  }
}
MOTION
Frames: 21
Frame Time: 0.0416666666667
0 103.5113 0 1.111054 -0.8516598 -0.3205268 3.1271 -14.62452 10.01407 -0 40.38299 -0 -6.105252 -16.59314 -3.112237 -7.331558 9.457601 -22.68337 -0 6.996899 -0 13.04689 -12.73353 28.96661 -4.201245 -4.40121 5.097575 2.668079 10.58531 -7.933188 1.005323 21.5774 6.893982 3.427302 -24.09141 8.96433 7.54229 -19.98654 12.1211 84.85172 38.28488 -18.00398 -0 0 16.53701 -8.004712 8.27559 4.506226 5.917372 -19.88603 -1.493609 -92.27449 20.45317 20.4901 0 0 -12.62853 13.9469 14.97124 -2.932965
0.3773658 103.6621 1.600265 0.99696 -0.7039231 -0.6003799 3.198643 -15.78767 9.505236 -0 39.61113 -0 -6.464921 -15.79313 -2.922734 -7.216592 9.472276 -22.30561 -0 6.393506 -0 12.89132 -13.2273 28.47237 -4.127172 -4.141866 4.954278 2.666372 10.57078 -7.965132 0.9604145 21.53785 6.973693 3.511491 -24.18271 8.931868 7.458014 -19.91846 12.1229 84.97938 38.22795 -18.07335 -0 0 16.26462 -8.288044 8.304944 4.679993 6.067484 -20.14317 -1.57552 -92.01024 20.219 20.14641 0 0 -12.98869 14.27319 14.93841 -3.267842
0.726994 103.5428 3.400379 0.6338208 -0.1991989 -0.7556293 3.8381 -19.59105 8.623526 -0 36.03592 -0 -6.509304 -13.99327 -2.544936 -6.837245 9.782045 -21.36247 -0 5.397869 -0 11.90558 -15.34954 27.33884 -3.79728 -3.509847 4.801992 2.670993 10.41382 -7.951211 1.116545 21.28861 7.001593 3.612798 -24.55481 9.047656 7.018899 -19.7993 12.04698 85.22751 37.10992 -18.33659 -0 0 16.07298 -8.659309 8.467572 4.68972 6.611848 -20.72485 -1.628724 -91.73191 20.18008 19.59495 0 0 -14.33759 14.54439 15.10842 -3.40278
1.049148 103.2077 5.415648 0.3531889 0.2943315 -0.8175041 4.48575 -22.58833 8.165951 -0 32.70322 -0 -6.263141 -12.68082 -2.287276 -6.552969 10.16118 -20.66484 -0 5.165454 -0 10.84779 -17.22198 26.43111 -3.524768 -3.112252 4.786958 2.69552 10.23279 -7.934538 1.314817 21.01339 6.97139 3.674877 -24.90097 9.183442 6.640971 -19.70061 11.93826 85.38017 36.03301 -18.64154 -0 0 16.07908 -8.776036 8.636944 4.506776 7.073768 -21.13336 -1.55867 -91.68073 20.39788 19.33469 0 0 -15.54152 14.42615 15.317 -3.146064
1.343842 102.6743 7.72599 0.06334041 0.9215494 -0.7715422 5.148312 -25.71795 7.610406 -0 28.99619 -0 -6.15785 -11.05317 -1.950826 -6.272043 10.63912 -19.83466 -0 5.253556 -0 9.551714 -19.19034 25.20337 -3.254967 -2.730911 4.757924 2.741506 10.01771 -7.963131 1.483826 20.68026 6.973951 3.791808 -25.28662 9.279481 6.26163 -19.53084 11.79316 85.57398 35.04019 -19.07838 -0 0 15.94606 -8.942824 8.837853 4.326274 7.57651 -21.61671 -1.441726 -91.55947 20.59434 18.99459 0 0 -16.91828 14.24586 15.49452 -2.864943
1.612486 101.9746 10.40614 -0.2268651 1.659716 -0.5998282 5.753955 -28.76471 6.934366 -0 25.20707 -0 -6.291329 -9.173015 -1.551517 -6.009874 11.22665 -18.90196 -0 5.715771 -0 8.003064 -21.09518 23.60558 -3.00719 -2.378799 4.680752 2.812468 9.754811 -8.051542 1.591076 20.32099 7.023192 3.966127 -25.67788 9.309331 5.912011 -19.25627 11.60644 85.81557 34.2721 -19.64591 -0 0 15.60189 -9.15157 9.041347 4.183205 8.070044 -22.13784 -1.284889 -91.34374 20.80722 18.55194 0 0 -18.38265 13.94455 15.62464 -2.507835
1.854404 101.1461 13.54361 -0.5281932 2.466441 -0.2837392 6.24525 -31.63557 6.063284 -0 21.46492 -0 -6.737591 -7.073048 -1.114062 -5.755452 11.99087 -17.84481 -0 6.624385 -0 6.113643 -22.8214 21.53294 -2.77476 -2.039038 4.499805 2.90741 9.414712 -8.205107 1.619938 19.9777 7.119314 4.186203 -26.02335 9.251524 5.576521 -18.81393 11.36076 86.14723 33.75825 -20.35192 -0 0 14.93655 -9.415322 9.213382 4.113211 8.51851 -22.66634 -1.110343 -90.97132 21.07756 17.90066 0 0 -19.89368 13.47105 15.6952 -2.031896
2.067637 100.2431 17.22714 -0.8496133 3.264915 0.1806614 6.595309 -34.07277 5.031322 -0 18.02956 -0 -7.477035 -4.950136 -0.7077676 -5.500073 12.95785 -16.69433 -0 8.180969 -0 3.869059 -24.12366 19.00155 -2.541442 -1.725051 4.188264 3.02255 8.982569 -8.415893 1.570404 19.69567 7.239399 4.415001 -26.26399 9.098022 5.251557 -18.16175 11.05071 86.59144 33.5067 -21.17052 -0 0 13.91256 -9.695949 9.321633 4.116767 8.856461 -23.12429 -0.9392874 -90.42862 21.43732 17.00026 0 0 -21.3091 12.78602 15.68403 -1.395471
2.249552 99.34555 21.53662 -1.202367 3.942887 0.7699319 6.82868 -35.71346 3.951683 -0 15.23436 -0 -8.415091 -3.102253 -0.4362394 -5.223664 14.08101 -15.49732 -0 10.6974 -0 1.353497 -24.64837 16.13959 -2.269053 -1.462369 3.74318 3.148564 8.471627 -8.66281 1.453011 19.52237 7.344606 4.595237 -26.33926 8.849947 4.935603 -17.28961 10.6929 87.16133 33.47826 -22.04417 -0 0 12.55158 -9.948328 9.3497 4.184071 8.993496 -23.41331 -0.8111219 -89.73391 21.88148 15.86864 0 0 -22.42761 11.89225 15.55814 -0.5841829
2.397456 98.56992 26.51933 -1.59218 4.351334 1.420498 7.039072 -36.10064 3.029383 -0 13.48172 -0 -9.384554 -1.907995 -0.428308 -4.892215 15.17992 -14.32275 -0 14.58582 -0 -1.210361 -23.97489 13.22936 -1.897398 -1.282561 3.200334 3.268863 7.940328 -8.906965 1.287984 19.50533 7.385148 4.656523 -26.20307 8.520536 4.634731 -16.25067 10.33973 87.84356 33.5785 -22.87286 -0 0 10.96449 -10.13129 9.308322 4.302291 8.815637 -23.4286 -0.7888353 -88.96757 22.38549 14.64153 0 0 -23.01206 10.82467 15.29192 0.4135163
2.507309 98.07562 32.15146 -2.004987 4.312643 2.023011 7.355847 -34.77456 2.507614 -0 13.16395 -0 -10.19753 -1.724975 -0.7945439 -4.464125 15.89789 -13.26086 -0 20.30292 -0 -3.502641 -21.75782 10.68335 -1.362145 -1.198193 2.643145 3.357784 7.497716 -9.085159 1.10649 19.69211 7.310943 4.538297 -25.84056 8.136087 4.364712 -15.17915 10.08119 88.58044 33.66112 -23.51091 -0 0 9.356235 -10.22032 9.233872 4.46223 8.213841 -23.09028 -0.9489242 -88.29492 22.94981 13.60359 0 0 -22.84533 9.622646 14.89961 1.640508
2.570181 98.0545 38.29107 -2.385716 3.658488 2.435878 7.837458 -31.46612 2.53708 -0 14.47298 -0 -10.75614 -2.676576 -1.537231 -3.92306 15.71075 -12.408 -0 28.19871 -0 -5.242945 -17.97737 8.935191 -0.6483764 -1.162706 2.203856 3.380276 7.287697 -9.107112 0.953999 20.12139 7.08981 4.235968 -25.28188 7.731113 4.160803 -14.27537 10.02301 89.25462 33.58606 -23.78206 -0 0 7.99213 -10.21568 9.170171 4.654754 7.158784 -22.39752 -1.337683 -87.95975 23.61841 13.14327 0 0 -21.80468 8.325768 14.46114 3.149964
2.568775 98.67805 44.65508 -2.620227 2.303843 2.531492 8.356825 -26.35641 3.029963 -0 17.0733 -0 -11.15887 -4.38245 -2.465831 -3.334629 14.06202 -11.80765 -0 38.19695 -0 -6.339095 -13.21504 8.289239 0.1270707 -1.039395 2.037752 3.294839 7.437479 -8.870679 0.8888031 20.79928 6.728984 3.852595 -24.58443 7.330744 4.082782 -13.72809 10.22913 89.69962 33.3312 -23.5284 -0 0 7.097129 -10.16783 9.140887 4.866138 5.810061 -21.49643 -1.905513 -88.18842 24.38362 13.54066 0 0 -19.94789 7.04036 14.10405 4.85408
2.479822 99.98923 50.87328 -2.552836 0.3294425 2.267484 8.62675 -20.1741 3.657888 -0 19.84216 -0 -11.63117 -5.976181 -3.241066 -2.856574 10.62615 -11.36727 -0 49.31751 -0 -6.884541 -8.676399 8.833158 0.6835615 -0.6431755 2.262927 3.063368 7.97192 -8.3068 0.9641395 21.66703 6.281099 3.585692 -23.76705 6.932463 4.177707 -13.60466 10.65153 89.73272 33.05218 -22.65623 -0 0 6.752874 -10.22619 9.140854 5.095013 4.556501 -20.68338 -2.480164 -88.98583 25.01264 14.64602 0 0 -17.57157 6.023015 13.92015 6.339805
2.287607 101.7915 56.63429 -2.087933 -1.978006 1.726131 8.40479 -13.8512 4.046588 -0 21.15908 -0 -12.22864 -6.806045 -3.584607 -2.593927 5.486288 -10.85032 -0 59.34446 -0 -7.015574 -5.648456 10.4091 0.7275316 0.1174542 2.896335 2.671887 8.737895 -7.435758 1.189829 22.59045 5.819086 3.582345 -22.77093 6.521881 4.384662 -13.8419 11.1234 89.17434 32.93157 -21.09736 -0 0 6.96694 -10.64503 9.164371 5.404203 3.839809 -20.22697 -2.845141 -90.00887 25.11612 15.84575 0 0 -15.16254 5.553136 13.86786 7.050039
2.008664 103.6546 61.83243 -1.341565 -4.143749 1.050385 7.712812 -7.941696 3.998197 -0 19.88009 -0 -12.65843 -7.298547 -3.464014 -2.386521 -0.9993576 -10.00523 -0 65.24804 -0 -6.837005 -4.636256 12.59244 0.2425555 1.121146 3.829064 2.15721 9.426118 -6.386133 1.492743 23.39516 5.409793 3.775321 -21.57818 6.119116 4.494058 -14.40308 11.46678 87.87386 32.93639 -18.73769 -0 0 7.894313 -11.65068 9.22036 5.960434 3.822179 -20.09886 -2.885117 -90.84729 24.58775 16.66994 0 0 -13.18677 5.560605 13.78226 6.92941
1.711548 105.0824 66.59154 -0.6423489 -5.60989 0.3186572 6.835141 -2.488102 3.514642 -0 16.11551 -0 -12.61013 -8.632638 -3.000457 -1.849751 -8.361294 -8.731176 -0 64.60828 -0 -6.448389 -5.068319 14.77704 -0.4363421 2.094817 4.842392 1.614169 9.733172 -5.352057 1.720097 23.93438 5.125261 3.948499 -20.38532 5.779607 4.296631 -15.36233 11.61322 85.82539 32.89456 -15.53013 -0 0 9.770738 -13.25057 9.274498 6.971918 4.26569 -19.98621 -2.656239 -91.4298 23.78432 17.3435 0 0 -11.82156 5.592739 13.54524 6.607118
1.49534 105.7182 71.16221 -0.2769007 -5.999906 -0.4766731 6.061821 2.578906 2.662148 -0 10.99372 -0 -12.20099 -11.35876 -2.23763 -0.7312698 -15.85186 -7.137949 -0 57.14855 -0 -5.913358 -5.916883 16.45163 -0.9353788 2.786836 5.678535 1.154251 9.549613 -4.509659 1.725617 24.15134 5.039352 3.97788 -19.51037 5.532077 3.780988 -16.72003 11.59129 83.28606 32.80928 -11.72644 -0 0 12.46705 -15.20791 9.214941 8.519089 4.802889 -19.6353 -2.298893 -91.90341 23.0653 18.33461 0 0 -10.8884 5.376605 13.19228 6.592965
1.430654 105.4409 75.79489 -0.2556152 -5.395019 -1.331412 5.470493 7.181695 1.557944 -0 5.970633 -0 -11.77943 -14.79786 -1.202009 0.7988848 -22.40084 -5.509629 -0 45.03033 -0 -5.243294 -6.478367 17.46737 -1.149937 3.0682 6.176269 0.833929 9.001484 -3.935518 1.491365 24.09358 5.162495 3.906295 -19.08895 5.361552 3.12108 -18.24207 11.44117 80.69273 32.82755 -7.859256 -0 0 15.37676 -17.20585 8.963484 10.43226 5.23127 -19.0438 -1.91245 -92.30429 22.42879 19.65442 0 0 -10.06831 5.086152 12.80606 6.752922
1.529007 104.3441 80.67227 -0.3738119 -4.297745 -2.192852 4.957014 11.21349 0.4537671 -0 2.403315 -0 -11.42291 -17.73577 -0.0667907 2.220634 -27.0931 -4.236295 -0 31.67125 -0 -4.492439 -6.604634 18.02406 -1.210556 2.932668 6.359538 0.6209613 8.336657 -3.584058 1.151409 23.86896 5.409577 3.816578 -18.98209 5.265289 2.504119 -19.59516 11.19323 78.47192 32.9257 -4.486118 -0 0 17.87329 -19.02058 8.590737 12.36674 5.516065 -18.32703 -1.543598 -92.56832 21.74146 20.9571 0 0 -9.147553 4.940133 12.42113 6.78724
1.765176 102.6717 85.91248 -0.4243579 -3.300773 -3.006809 4.381032 14.67041 -0.3307913 -0 1.298111 -0 -10.89103 -19.23053 0.9364237 3.000561 -29.61501 -3.661466 -0 20.1312 -0 -3.799521 -6.472052 18.43593 -1.279657 2.456685 6.381685 0.4285537 7.787883 -3.341999 0.8893991 23.58498 5.662388 3.742328 -18.96113 5.277438 2.023647 -20.56786 10.88913 76.93005 32.8543 -1.990071 -0 0 19.68828 -20.58569 8.268051 14.00186 5.664838 -17.56464 -1.236265 -92.70807 21.02741 22.01577 0 0 -8.076968 4.887734 12.03991 6.724849
